<?xml version="1.0" encoding="utf-8"?>
<!-- Generator: Adobe Illustrator 22.0.1, SVG Export Plug-In . SVG Version: 6.00 Build 0)  -->
<svg version="1.1" id="Layer_1" xmlns="http://www.w3.org/2000/svg" xmlns:xlink="http://www.w3.org/1999/xlink" x="0px" y="0px"
	 viewBox="0 0 98.9 70.4" style="enable-background:new 0 0 98.9 70.4;" xml:space="preserve">
<style type="text/css">
	.st0{clip-path:url(#SVGID_2_);fill:#27415F;}
	.st1{clip-path:url(#SVGID_4_);fill:#27415F;}
	.st2{fill:#FFCD05;}
	.st3{fill:#FFFFFF;}
	.st4{fill:#27415F;}
</style>
<g>
	<defs>
		<path id="SVGID_1_" d="M97.1,65.7c0,1.9-2.2,3.5-4.9,3.5H23V48H1.8V23h95.3V65.7z"/>
	</defs>
	<clipPath id="SVGID_2_">
		<use xlink:href="#SVGID_1_"  style="overflow:visible;"/>
	</clipPath>
	<rect x="1.8" y="-0.3" class="st0" width="95.3" height="69.8"/>
</g>
<g>
	<defs>
		<path id="SVGID_3_" d="M97.1,21.2H1.8V4.8c0-1.9,2.2-3.5,4.9-3.5h85.6c2.7,0,4.9,1.6,4.9,3.5V21.2z"/>
	</defs>
	<clipPath id="SVGID_4_">
		<use xlink:href="#SVGID_3_"  style="overflow:visible;"/>
	</clipPath>
	<rect x="1.8" y="1" class="st1" width="95.3" height="69.8"/>
</g>
<path class="st2" d="M92.3,0H6.6C3,0,0,2.2,0,4.8v60.9c0,2.6,3,4.7,6.6,4.7h85.6c3.7,0,6.6-2.1,6.6-4.7V4.8C98.9,2.2,95.9,0,92.3,0z
	 M97.1,65.7c0,1.9-2.2,3.5-4.9,3.5H23V48H1.8V23h95.3V65.7z M97.1,21.2H1.8V4.8c0-1.9,2.2-3.5,4.9-3.5h85.6c2.7,0,4.9,1.6,4.9,3.5
	V21.2z"/>
<g>
	<rect x="8.3" y="30.7" class="st2" width="13.9" height="13.9"/>
	<rect x="25.5" y="26.7" class="st2" width="13.9" height="31.9"/>
	<rect x="42.5" y="32.1" class="st2" width="13.9" height="30.6"/>
	<rect x="59.5" y="36.1" class="st2" width="13.9" height="29.5"/>
	<rect x="76.5" y="28.9" class="st2" width="13.9" height="27.3"/>
</g>
<g>
	<path class="st2" d="M12,15.6v-1c-0.2,0.3-0.5,0.6-0.9,0.8s-0.8,0.3-1.2,0.3c-0.4,0-0.8-0.1-1.2-0.3S8.1,15,8,14.7
		s-0.2-0.8-0.2-1.4v-4h1.7v2.9c0,0.9,0,1.4,0.1,1.7c0.1,0.2,0.2,0.4,0.3,0.5s0.4,0.2,0.6,0.2c0.3,0,0.5-0.1,0.8-0.2s0.4-0.4,0.5-0.6
		c0.1-0.2,0.1-0.8,0.1-1.7V9.2h1.7v6.4H12z"/>
	<path class="st2" d="M21.1,11.1l-1.7,0.3c-0.1-0.3-0.2-0.6-0.4-0.8c-0.2-0.2-0.5-0.3-0.8-0.3c-0.4,0-0.8,0.1-1,0.4
		s-0.4,0.8-0.4,1.5c0,0.8,0.1,1.3,0.4,1.6c0.3,0.3,0.6,0.5,1,0.5c0.3,0,0.6-0.1,0.8-0.3c0.2-0.2,0.3-0.5,0.4-0.9l1.7,0.3
		c-0.2,0.8-0.5,1.3-1,1.7c-0.5,0.4-1.1,0.6-2,0.6c-0.9,0-1.7-0.3-2.2-0.9c-0.6-0.6-0.8-1.4-0.8-2.4c0-1.1,0.3-1.9,0.8-2.5
		c0.6-0.6,1.3-0.9,2.3-0.9c0.8,0,1.4,0.2,1.9,0.5S20.9,10.4,21.1,11.1z"/>
	<path class="st2" d="M22.1,13.8l1.7-0.3c0.1,0.3,0.2,0.6,0.4,0.7s0.5,0.3,0.9,0.3c0.4,0,0.8-0.1,1-0.2c0.1-0.1,0.2-0.3,0.2-0.5
		c0-0.1,0-0.2-0.1-0.3c-0.1-0.1-0.3-0.2-0.6-0.2c-1.4-0.3-2.2-0.6-2.6-0.8c-0.5-0.3-0.8-0.8-0.8-1.4c0-0.6,0.2-1,0.7-1.4
		c0.4-0.4,1.1-0.6,2-0.6c0.9,0,1.5,0.1,1.9,0.4c0.4,0.3,0.7,0.7,0.9,1.3l-1.6,0.3c-0.1-0.2-0.2-0.4-0.4-0.6
		c-0.2-0.1-0.5-0.2-0.8-0.2c-0.4,0-0.8,0.1-1,0.2c-0.1,0.1-0.2,0.2-0.2,0.3c0,0.1,0.1,0.2,0.2,0.3c0.2,0.1,0.7,0.3,1.6,0.5
		s1.5,0.5,1.9,0.8c0.4,0.3,0.5,0.7,0.5,1.3c0,0.6-0.2,1.1-0.7,1.5c-0.5,0.4-1.2,0.6-2.2,0.6c-0.9,0-1.6-0.2-2.1-0.5
		C22.5,14.9,22.2,14.4,22.1,13.8z"/>
	<path class="st2" d="M35.6,15.6H34v-0.9c-0.3,0.4-0.6,0.6-0.9,0.8c-0.4,0.2-0.7,0.3-1.1,0.3c-0.7,0-1.4-0.3-1.9-0.9
		c-0.5-0.6-0.8-1.4-0.8-2.5c0-1.1,0.3-1.9,0.8-2.5s1.2-0.8,1.9-0.8c0.7,0,1.3,0.3,1.9,0.9V6.8h1.7V15.6z M31.1,12.3
		c0,0.7,0.1,1.2,0.3,1.5c0.3,0.4,0.7,0.7,1.1,0.7c0.4,0,0.7-0.2,1-0.5c0.3-0.3,0.4-0.8,0.4-1.5c0-0.7-0.1-1.3-0.4-1.6
		c-0.3-0.3-0.6-0.5-1-0.5c-0.4,0-0.7,0.2-1,0.5C31.2,11.2,31.1,11.7,31.1,12.3z"/>
	<path class="st3" d="M36.9,13.8l1.7-0.3c0.1,0.3,0.2,0.6,0.4,0.7s0.5,0.3,0.9,0.3c0.4,0,0.8-0.1,1-0.2c0.1-0.1,0.2-0.3,0.2-0.5
		c0-0.1,0-0.2-0.1-0.3c-0.1-0.1-0.3-0.2-0.6-0.2c-1.4-0.3-2.2-0.6-2.6-0.8c-0.5-0.3-0.8-0.8-0.8-1.4c0-0.6,0.2-1,0.7-1.4
		c0.4-0.4,1.1-0.6,2-0.6c0.9,0,1.5,0.1,1.9,0.4c0.4,0.3,0.7,0.7,0.9,1.3l-1.6,0.3c-0.1-0.2-0.2-0.4-0.4-0.6
		c-0.2-0.1-0.5-0.2-0.8-0.2c-0.4,0-0.8,0.1-1,0.2c-0.1,0.1-0.2,0.2-0.2,0.3c0,0.1,0.1,0.2,0.2,0.3c0.2,0.1,0.7,0.3,1.6,0.5
		s1.5,0.5,1.9,0.8c0.4,0.3,0.5,0.7,0.5,1.3c0,0.6-0.2,1.1-0.7,1.5c-0.5,0.4-1.2,0.6-2.2,0.6c-0.9,0-1.6-0.2-2.1-0.5
		C37.4,14.9,37.1,14.4,36.9,13.8z"/>
	<path class="st3" d="M50.2,11.1l-1.7,0.3c-0.1-0.3-0.2-0.6-0.4-0.8c-0.2-0.2-0.5-0.3-0.8-0.3c-0.4,0-0.8,0.1-1,0.4S46,11.6,46,12.3
		c0,0.8,0.1,1.3,0.4,1.6c0.3,0.3,0.6,0.5,1,0.5c0.3,0,0.6-0.1,0.8-0.3c0.2-0.2,0.3-0.5,0.4-0.9l1.7,0.3c-0.2,0.8-0.5,1.3-1,1.7
		c-0.5,0.4-1.1,0.6-2,0.6c-0.9,0-1.7-0.3-2.2-0.9s-0.8-1.4-0.8-2.4c0-1.1,0.3-1.9,0.8-2.5c0.6-0.6,1.3-0.9,2.3-0.9
		c0.8,0,1.4,0.2,1.9,0.5S50,10.4,50.2,11.1z"/>
	<path class="st3" d="M53.4,6.8V10c0.5-0.6,1.2-1,2-1c0.4,0,0.7,0.1,1.1,0.2c0.3,0.1,0.5,0.3,0.7,0.6c0.2,0.2,0.3,0.5,0.3,0.7
		c0.1,0.3,0.1,0.7,0.1,1.3v3.7h-1.7v-3.4c0-0.7,0-1.1-0.1-1.3c-0.1-0.2-0.2-0.3-0.3-0.4c-0.2-0.1-0.4-0.2-0.6-0.2
		c-0.3,0-0.5,0.1-0.8,0.2s-0.4,0.3-0.5,0.6c-0.1,0.3-0.2,0.7-0.2,1.2v3.2h-1.7V6.8H53.4z"/>
	<path class="st3" d="M63.2,13.6l1.7,0.3c-0.2,0.6-0.6,1.1-1,1.4s-1.1,0.5-1.8,0.5c-1.1,0-1.9-0.4-2.5-1.1c-0.4-0.6-0.6-1.3-0.6-2.2
		c0-1.1,0.3-1.9,0.8-2.5c0.6-0.6,1.3-0.9,2.1-0.9c1,0,1.7,0.3,2.2,0.9c0.5,0.6,0.8,1.6,0.8,2.9h-4.2c0,0.5,0.1,0.9,0.4,1.2
		s0.6,0.4,1,0.4c0.3,0,0.5-0.1,0.7-0.2C63,14.1,63.1,13.9,63.2,13.6z M63.3,11.9c0-0.5-0.1-0.9-0.4-1.1c-0.2-0.3-0.5-0.4-0.9-0.4
		c-0.4,0-0.7,0.1-0.9,0.4c-0.2,0.3-0.4,0.6-0.4,1.1H63.3z"/>
	<path class="st3" d="M72.4,15.6h-1.6v-0.9c-0.3,0.4-0.6,0.6-0.9,0.8c-0.4,0.2-0.7,0.3-1.1,0.3c-0.7,0-1.4-0.3-1.9-0.9
		c-0.5-0.6-0.8-1.4-0.8-2.5c0-1.1,0.3-1.9,0.8-2.5c0.5-0.6,1.2-0.8,1.9-0.8c0.7,0,1.3,0.3,1.9,0.9V6.8h1.7V15.6z M67.9,12.3
		c0,0.7,0.1,1.2,0.3,1.5c0.3,0.4,0.7,0.7,1.1,0.7c0.4,0,0.7-0.2,1-0.5c0.3-0.3,0.4-0.8,0.4-1.5c0-0.7-0.1-1.3-0.4-1.6
		c-0.3-0.3-0.6-0.5-1-0.5c-0.4,0-0.7,0.2-1,0.5C68.1,11.2,67.9,11.7,67.9,12.3z"/>
	<path class="st3" d="M78.6,15.6v-1c-0.2,0.3-0.5,0.6-0.9,0.8s-0.8,0.3-1.2,0.3c-0.4,0-0.8-0.1-1.2-0.3s-0.6-0.5-0.7-0.8
		s-0.2-0.8-0.2-1.4v-4H76v2.9c0,0.9,0,1.4,0.1,1.7c0.1,0.2,0.2,0.4,0.3,0.5c0.2,0.1,0.4,0.2,0.6,0.2c0.3,0,0.5-0.1,0.8-0.2
		s0.4-0.4,0.5-0.6c0.1-0.2,0.1-0.8,0.1-1.7V9.2h1.7v6.4H78.6z"/>
	<path class="st3" d="M82.1,15.6V6.8h1.7v8.8H82.1z"/>
	<path class="st3" d="M89.5,13.6l1.7,0.3c-0.2,0.6-0.6,1.1-1,1.4s-1.1,0.5-1.8,0.5c-1.1,0-1.9-0.4-2.5-1.1c-0.4-0.6-0.6-1.3-0.6-2.2
		c0-1.1,0.3-1.9,0.8-2.5c0.6-0.6,1.3-0.9,2.1-0.9c1,0,1.7,0.3,2.2,0.9c0.5,0.6,0.8,1.6,0.8,2.9H87c0,0.5,0.1,0.9,0.4,1.2
		s0.6,0.4,1,0.4c0.3,0,0.5-0.1,0.7-0.2C89.3,14.1,89.4,13.9,89.5,13.6z M89.6,11.9c0-0.5-0.1-0.9-0.4-1.1c-0.2-0.3-0.5-0.4-0.9-0.4
		c-0.4,0-0.7,0.1-0.9,0.4c-0.2,0.3-0.4,0.6-0.4,1.1H89.6z"/>
</g>
<path class="st4" d="M12.6,60.8l1,1.3L11,63.8c0,0-0.4-0.7-1-1.3l5.9-5.5l1,0.9l2.5-6.5L13,54l0.9,1l-5.5,5.9c-0.6-0.5-1.3-1-1.3-1
	l1.7-2.6l1.3,1l-0.3-6.6c0,0-4.5,7.4-5.3,8.8c1,0.5,2.6,1.8,2.6,1.8l-2.8,3.1l0.6,0.6l0.6,0.6l3.1-2.8c0,0,1.3,1.6,1.8,2.6
	c1.4-0.8,8.8-5.3,8.8-5.3L12.6,60.8z"/>
</svg>
